solid m0-chassis
facet normal 0.000000 0.000000 -1.000000
 outer loop
  vertex 0 80 0
  vertex 74 80 0
  vertex 80 74 0
 endloop
endfacet
facet normal 0.000000 0.000000 -1.000000
 outer loop
  vertex 0 80 0
  vertex 80 74 0
  vertex 80 0 0
 endloop
endfacet
facet normal 0.000000 0.000000 -1.000000
 outer loop
  vertex 0 80 0
  vertex 80 0 0
  vertex 0 0 0
 endloop
endfacet
facet normal 0.000000 0.000000 1.000000
 outer loop
  vertex 2 2 2
  vertex 78 2 2
  vertex 78 73.172 2
 endloop
endfacet
facet normal 0.000000 0.000000 1.000000
 outer loop
  vertex 2 2 2
  vertex 78 73.172 2
  vertex 73.172 78 2
 endloop
endfacet
facet normal 0.000000 0.000000 1.000000
 outer loop
  vertex 2 2 2
  vertex 73.172 78 2
  vertex 2 78 2
 endloop
endfacet
facet normal 0.000000 -1.000000 0.000000
 outer loop
  vertex 0 0 0
  vertex 80 0 0
  vertex 80 0 24
 endloop
endfacet
facet normal 0.000000 -1.000000 0.000000
 outer loop
  vertex 0 0 0
  vertex 80 0 24
  vertex 0 0 24
 endloop
endfacet
facet normal 0.000000 0.000000 1.000000
 outer loop
  vertex 0 0 24
  vertex 80 0 24
  vertex 78 2 24
 endloop
endfacet
facet normal 0.000000 0.000000 1.000000
 outer loop
  vertex 0 0 24
  vertex 78 2 24
  vertex 2 2 24
 endloop
endfacet
facet normal 0.000000 1.000000 0.000000
 outer loop
  vertex 2 2 24
  vertex 78 2 24
  vertex 78 2 2
 endloop
endfacet
facet normal 0.000000 1.000000 0.000000
 outer loop
  vertex 2 2 24
  vertex 78 2 2
  vertex 2 2 2
 endloop
endfacet
facet normal 1.000000 0.000000 0.000000
 outer loop
  vertex 80 0 0
  vertex 80 74 0
  vertex 80 74 24
 endloop
endfacet
facet normal 1.000000 0.000000 0.000000
 outer loop
  vertex 80 0 0
  vertex 80 74 24
  vertex 80 0 24
 endloop
endfacet
facet normal 0.000000 0.000000 1.000000
 outer loop
  vertex 80 0 24
  vertex 80 74 24
  vertex 78 73.172 24
 endloop
endfacet
facet normal 0.000000 0.000000 1.000000
 outer loop
  vertex 80 0 24
  vertex 78 73.172 24
  vertex 78 2 24
 endloop
endfacet
facet normal -1.000000 0.000000 0.000000
 outer loop
  vertex 78 2 24
  vertex 78 73.172 24
  vertex 78 73.172 2
 endloop
endfacet
facet normal -1.000000 0.000000 0.000000
 outer loop
  vertex 78 2 24
  vertex 78 73.172 2
  vertex 78 2 2
 endloop
endfacet
facet normal 0.707107 0.707107 0.000000
 outer loop
  vertex 80 74 0
  vertex 74 80 0
  vertex 74 80 24
 endloop
endfacet
facet normal 0.707107 0.707107 0.000000
 outer loop
  vertex 80 74 0
  vertex 74 80 24
  vertex 80 74 24
 endloop
endfacet
facet normal 0.000000 -0.000000 1.000000
 outer loop
  vertex 80 74 24
  vertex 74 80 24
  vertex 73.172 78 24
 endloop
endfacet
facet normal 0.000000 0.000000 1.000000
 outer loop
  vertex 80 74 24
  vertex 73.172 78 24
  vertex 78 73.172 24
 endloop
endfacet
facet normal -0.707107 -0.707107 0.000000
 outer loop
  vertex 78 73.172 24
  vertex 73.172 78 24
  vertex 73.172 78 2
 endloop
endfacet
facet normal -0.707107 -0.707107 -0.000000
 outer loop
  vertex 78 73.172 24
  vertex 73.172 78 2
  vertex 78 73.172 2
 endloop
endfacet
facet normal 0.000000 1.000000 0.000000
 outer loop
  vertex 74 80 0
  vertex 0 80 0
  vertex 0 80 24
 endloop
endfacet
facet normal 0.000000 1.000000 0.000000
 outer loop
  vertex 74 80 0
  vertex 0 80 24
  vertex 74 80 24
 endloop
endfacet
facet normal 0.000000 0.000000 1.000000
 outer loop
  vertex 74 80 24
  vertex 0 80 24
  vertex 2 78 24
 endloop
endfacet
facet normal 0.000000 -0.000000 1.000000
 outer loop
  vertex 74 80 24
  vertex 2 78 24
  vertex 73.172 78 24
 endloop
endfacet
facet normal 0.000000 -1.000000 0.000000
 outer loop
  vertex 73.172 78 24
  vertex 2 78 24
  vertex 2 78 2
 endloop
endfacet
facet normal 0.000000 -1.000000 -0.000000
 outer loop
  vertex 73.172 78 24
  vertex 2 78 2
  vertex 73.172 78 2
 endloop
endfacet
facet normal -1.000000 0.000000 0.000000
 outer loop
  vertex 0 80 0
  vertex 0 0 0
  vertex 0 0 24
 endloop
endfacet
facet normal -1.000000 0.000000 0.000000
 outer loop
  vertex 0 80 0
  vertex 0 0 24
  vertex 0 80 24
 endloop
endfacet
facet normal 0.000000 0.000000 1.000000
 outer loop
  vertex 0 80 24
  vertex 0 0 24
  vertex 2 2 24
 endloop
endfacet
facet normal 0.000000 0.000000 1.000000
 outer loop
  vertex 0 80 24
  vertex 2 2 24
  vertex 2 78 24
 endloop
endfacet
facet normal 1.000000 0.000000 0.000000
 outer loop
  vertex 2 78 24
  vertex 2 2 24
  vertex 2 2 2
 endloop
endfacet
facet normal 1.000000 0.000000 0.000000
 outer loop
  vertex 2 78 24
  vertex 2 2 2
  vertex 2 78 2
 endloop
endfacet
endsolid m0-chassis
